<svg xmlns="http://www.w3.org/2000/svg" viewBox="0 0 256 256">
  <rect x="12" y="12" width="232" height="232" rx="56" fill="#0f172a" />
  <rect x="58" y="44" width="90" height="168" rx="18" fill="#e2e8f0" />
  <rect x="68" y="60" width="14" height="12" rx="3" fill="#0f172a" />
  <rect x="124" y="60" width="14" height="12" rx="3" fill="#0f172a" />
  <rect x="68" y="88" width="14" height="12" rx="3" fill="#0f172a" />
  <rect x="124" y="88" width="14" height="12" rx="3" fill="#0f172a" />
  <rect x="68" y="116" width="14" height="12" rx="3" fill="#0f172a" />
  <rect x="124" y="116" width="14" height="12" rx="3" fill="#0f172a" />
  <rect x="68" y="144" width="14" height="12" rx="3" fill="#0f172a" />
  <rect x="124" y="144" width="14" height="12" rx="3" fill="#0f172a" />
  <rect x="68" y="172" width="14" height="12" rx="3" fill="#0f172a" />
  <rect x="124" y="172" width="14" height="12" rx="3" fill="#0f172a" />
  <path d="M106 106v44l30-22-30-22Z" fill="#ef4444" />
  <circle cx="191" cy="93" r="37" fill="#38bdf8" />
  <circle cx="191" cy="163" r="37" fill="#38bdf8" />
  <circle cx="191" cy="93" r="11" fill="#0f172a" />
  <circle cx="191" cy="163" r="11" fill="#0f172a" />
  <rect x="162" y="116" width="58" height="26" rx="12" fill="#94a3b8" />
</svg>
